PathFileType	4	(X/Y/Z)	/Users/itak/Documents/Research/Walk-IL/dataset/trc/00192_00008.trc
DataRate	CameraRate	NumFrames	NumMarkers	Units	OrigDataRate	OrigDataStartFrame	OrigNumFrames
100.000000	100.000000	4	53	mm	100.000000	198	794
Frame#	Time	RPSI			LPSI			L3			STRN			T10			C7			CLAV			RBAK			LBAK			LSHO			LUPA			LAEL			LAOL			LWTS			LWPS			LFRA			LIFD			LHPS			LHTS			RSHO			RUPA			RAEL			RAOL			RWTS			RWPS			RFRA			RIFD			RHTS			RHPS			RBHD			LFHD			RFHD			LBHD			LHIP			RHIP			RASI			LASI			LKNE			LTHI			LANK			LTIP			LTOE			LMT1			LMT5			LHEE			RKNE			RTHI			RANK			RTIP			RTOE			RMT1			RMT5			RHEE			
		X1	Y1	Z1	X2	Y2	Z2	X3	Y3	Z3	X4	Y4	Z4	X5	Y5	Z5	X6	Y6	Z6	X7	Y7	Z7	X8	Y8	Z8	X9	Y9	Z9	X10	Y10	Z10	X11	Y11	Z11	X12	Y12	Z12	X13	Y13	Z13	X14	Y14	Z14	X15	Y15	Z15	X16	Y16	Z16	X17	Y17	Z17	X18	Y18	Z18	X19	Y19	Z19	X20	Y20	Z20	X21	Y21	Z21	X22	Y22	Z22	X23	Y23	Z23	X24	Y24	Z24	X25	Y25	Z25	X26	Y26	Z26	X27	Y27	Z27	X28	Y28	Z28	X29	Y29	Z29	X30	Y30	Z30	X31	Y31	Z31	X32	Y32	Z32	X33	Y33	Z33	X34	Y34	Z34	X35	Y35	Z35	X36	Y36	Z36	X37	Y37	Z37	X38	Y38	Z38	X39	Y39	Z39	X40	Y40	Z40	X41	Y41	Z41	X42	Y42	Z42	X43	Y43	Z43	X44	Y44	Z44	X45	Y45	Z45	X46	Y46	Z46	X47	Y47	Z47	X48	Y48	Z48	X49	Y49	Z49	X50	Y50	Z50	X51	Y51	Z51	X52	Y52	Z52	X53	Y53	Z53	

199	1.98	-539.9572143554688	1022.785827636719	422.0835876464844	-643.2997436523438	1029.746459960938	486.0957336425781	-583.9722290039062	1057.276000976562	451.3582458496094	-720.2372436523438	1281.497314453125	240.3250122070312	-550.2247314453125	1214.8720703125	485.2652587890625	-583.8160400390625	1486.995849609375	440.0942077636719	-706.4261474609375	1394.247314453125	271.5885009765625	-465.12158203125	1305.86181640625	430.1597900390625	-660.5747680664062	1466.71533203125	505.3869323730469	-768.1122436523438	1460.091552734375	492.4846801757812	-804.77587890625	1331.640014648438	571.95751953125	-823.4935913085938	1117.109985351562	589.6328125	-739.1095581054688	1098.502075195312	568.343994140625	-887.038330078125	877.3438720703125	513.6529541015625	-854.966064453125	865.758544921875	601.3743286132812	-844.0005493164062	1008.0703125	600.69580078125	-865.882080078125	708.0935668945312	500.5549926757812	-866.1922607421875	794.7821655273438	592.1895141601562	-906.260986328125	798.54931640625	531.4163818359375	-475.873291015625	1461.864013671875	281.4246826171875	-411.5560302734375	1392.576049804688	257.3087158203125	-373.4207763671875	1101.093383789062	242.9400024414062	-450.8648071289062	1096.731323242188	301.4672241210938	-473.9757690429688	877.27587890625	136.3783111572266	-394.6755981445312	858.1788330078125	174.7860260009766	-374.6307678222656	1029.322509765625	211.8879241943359	-507.3086547851562	689.7998046875	140.8144683837891	-484.2098999023438	782.814208984375	111.7813339233398	-414.6386108398438	775.5523681640625	154.4244079589844	-549.3154296875	1639.825561523438	351.8701477050781	-742.4716796875	1709.971923828125	280.4599609375	-635.052490234375	1695.243286132812	209.7485656738281	-657.4630126953125	1661.929809570312	432.5120544433594	-810.9434204101562	988.885498046875	451.461669921875	-512.7398681640625	963.6848754882812	227.6002044677734	-596.970947265625	1003.05712890625	182.1759033203125	-811.8814086914062	1025.748046875	316.3968200683594	-881.1842041015625	515.3751220703125	242.0867156982422	-882.69921875	649.93408203125	307.658203125	-903.8085327148438	29.7827320098877	253.6644287109375	-904.9371337890625	281.7437438964844	242.5224304199219	-931.8994750976562	76.30180358886719	45.97355270385742	-875.13623046875	65.07044982910156	77.20412445068359	-965.85986328125	36.11466217041016	159.3221588134766	-824.6642456054688	33.8105354309082	287.1487426757812	-546.5971069335938	472.423583984375	343.9463806152344	-543.0164794921875	726.683837890625	227.8936767578125	-420.7129821777344	85.69645690917969	651.396484375	-549.6360473632812	354.5337829589844	403.7940673828125	-601.4698486328125	44.71103286743164	546.8990478515625	-592.8027954101562	59.96609878540039	607.318603515625	-478.1670227050781	34.77176666259766	562.9266357421875	-432.7706604003906	131.1390228271484	723.3208618164062	
200	1.99	-547.0302124023438	1023.804443359375	414.11279296875	-650.8338623046875	1031.436645507812	476.8664245605469	-591.3948364257812	1058.730712890625	442.8818969726562	-724.868896484375	1283.288330078125	230.6688232421875	-558.4334106445312	1215.955078125	477.7153625488281	-591.4800415039062	1488.115234375	433.1347045898438	-711.6123657226562	1395.97802734375	262.4761047363281	-472.60791015625	1307.234130859375	424.2256164550781	-669.3123779296875	1467.783447265625	497.0866394042969	-776.5838623046875	1461.309936523438	482.5624389648438	-814.3562622070312	1332.845458984375	561.3735961914062	-832.5339965820312	1118.383178710938	578.78662109375	-747.86865234375	1100.08203125	558.5093383789062	-893.6538696289062	877.5607299804688	503.9169311523438	-862.5098266601562	867.0287475585938	592.1154174804688	-852.5635986328125	1009.401977539062	590.2830200195312	-870.3955688476562	708.2665405273438	492.8246459960938	-872.8960571289062	795.8439331054688	583.4676513671875	-912.2598876953125	798.5833129882812	522.1185302734375	-481.3607482910156	1463.825317382812	276.1192626953125	-416.4754943847656	1394.885620117188	252.8348846435547	-377.1919555664062	1103.749389648438	239.4410552978516	-455.7647705078125	1099.07568359375	296.276123046875	-473.6726379394531	878.5419311523438	131.6882934570312	-394.8536071777344	860.50146484375	171.7543792724609	-377.2871704101562	1031.957397460938	208.4844818115234	-504.8865966796875	690.5401611328125	136.7800598144531	-482.3573608398438	783.6837768554688	107.5739288330078	-413.5484924316406	777.529541015625	151.4808654785156	-555.4344482421875	1640.996337890625	346.4455871582031	-746.7695922851562	1711.707885742188	270.7091674804688	-637.850830078125	1696.801391601562	202.4906921386719	-665.4796752929688	1663.297485351562	424.6521911621094	-818.1075439453125	991.110107421875	440.2353515625	-517.1920776367188	964.2606201171875	219.9136352539062	-600.711181640625	1004.339721679688	174.1017150878906	-817.5552368164062	1027.569702148438	304.9861450195312	-886.2338256835938	515.3956298828125	235.2749938964844	-888.5452880859375	650.99658203125	299.167236328125	-904.5989379882812	29.33001136779785	253.6349334716797	-908.396240234375	281.422119140625	238.8853759765625	-933.7883911132812	72.55503845214844	45.19620513916016	-876.8831787109375	62.78722763061523	76.52631378173828	-967.2709350585938	33.94164657592773	159.4776000976562	-825.377197265625	34.76018905639648	286.8004760742188	-552.1172485351562	471.2107543945312	331.2767639160156	-547.8155517578125	727.2439575195312	218.9276580810547	-424.5455627441406	92.90978240966797	649.8926391601562	-553.438720703125	353.7383422851562	392.4818725585938	-599.2852783203125	44.91193008422852	541.8264770507812	-594.407470703125	61.44135665893555	601.7792358398438	-477.8737182617188	35.73757553100586	563.1943359375	-440.6374206542969	140.8529968261719	719.2160034179688	
201	2	-554.00927734375	1024.842041015625	406.5406799316406	-658.37451171875	1033.131469726562	467.8686218261719	-598.7403564453125	1060.218505859375	434.7283020019531	-729.2687377929688	1285.078491210938	220.9592742919922	-566.6513671875	1217.153930664062	470.2460021972656	-599.1334228515625	1489.309814453125	426.0922241210938	-716.6265258789062	1397.721557617188	253.2798004150391	-480.0728454589844	1308.715942382812	418.3671569824219	-678.0359497070312	1468.9462890625	488.6601867675781	-785.0037841796875	1462.628295898438	472.4278869628906	-823.9675903320312	1334.200805664062	550.5938720703125	-841.6408081054688	1119.794799804688	567.7816162109375	-756.6923828125	1101.806884765625	548.6073608398438	-900.3861694335938	877.9992065429688	493.7976379394531	-870.356689453125	868.4570922851562	582.5261840820312	-861.3097534179688	1010.875061035156	579.6207885742188	-875.0159301757812	708.6621704101562	484.7617492675781	-879.9326782226562	797.0855102539062	574.3710327148438	-918.4273071289062	798.8377685546875	512.36669921875	-486.748046875	1465.857299804688	270.8760375976562	-421.2882995605469	1397.296508789062	248.4588623046875	-380.7893371582031	1106.487426757812	235.9701843261719	-460.519287109375	1101.51318359375	291.0932312011719	-473.3615417480469	880.104736328125	126.9111633300781	-395.09326171875	862.9884033203125	168.6103973388672	-379.8585815429688	1034.68505859375	205.0927734375	-502.7960510253906	691.6411743164062	132.5950164794922	-480.6570129394531	784.885009765625	103.2482604980469	-412.66943359375	779.7230224609375	148.4008331298828	-561.5230712890625	1642.206909179688	340.9781188964844	-750.9800415039062	1713.503662109375	260.9638366699219	-640.57470703125	1698.429809570312	195.2727661132812	-673.38623046875	1664.6689453125	416.7079467773438	-825.0595703125	993.2346801757812	429.1858520507812	-521.3104858398438	964.853759765625	212.6707305908203	-604.091796875	1005.632629394531	166.3751068115234	-822.9827880859375	1029.29150390625	293.743896484375	-890.8843994140625	515.273681640625	229.096435546875	-893.964111328125	651.739990234375	291.4867553710938	-905.2582397460938	28.96595764160156	253.5954284667969	-911.4611206054688	281.0592956542969	235.6717224121094	-935.087646484375	69.41304016113281	44.53044891357422	-878.156494140625	60.92523574829102	76.01930999755859	-968.4202880859375	32.22018051147461	159.5519104003906	-826.0208129882812	35.50519561767578	286.5447692871094	-557.5891723632812	469.8719177246094	318.0044860839844	-552.3248901367188	727.8627319335938	209.9271545410156	-429.1730041503906	100.5815124511719	647.7427368164062	-557.3495483398438	352.9390258789062	380.471923828125	-596.9505615234375	45.10655975341797	535.7213745117188	-596.2061157226562	62.82805252075195	595.0743408203125	-477.7804260253906	37.37442779541016	562.829345703125	-449.6417541503906	150.5684356689453	714.2904663085938	
202	2.01	-560.8729858398438	1025.854858398438	399.3671875	-665.9287719726562	1034.8154296875	459.1197814941406	-605.9891357421875	1061.722534179688	426.907958984375	-733.4284057617188	1286.7978515625	211.2023468017578	-574.878173828125	1218.455688476562	462.9033813476562	-606.791015625	1490.571044921875	418.9577941894531	-721.452880859375	1399.405151367188	243.9913787841797	-487.5194396972656	1310.27001953125	412.6261901855469	-686.758544921875	1470.180053710938	480.0963745117188	-793.3838500976562	1463.988037109375	462.0599060058594	-833.6107788085938	1335.640991210938	539.5999145507812	-850.8184814453125	1121.276000976562	556.644287109375	-765.5955200195312	1103.601318359375	538.6787719726562	-907.2391967773438	878.6096801757812	483.2956237792969	-878.5078735351562	869.9667358398438	572.5889282226562	-870.233642578125	1012.414001464844	568.7265014648438	-879.820556640625	709.239501953125	476.308349609375	-887.313232421875	798.434326171875	564.8648681640625	-924.7854614257812	799.26953125	502.1442260742188	-492.015869140625	1467.890380859375	265.6844787597656	-425.9837341308594	1399.712646484375	244.1983489990234	-384.1967163085938	1109.212158203125	232.5119476318359	-465.0812377929688	1103.93408203125	285.9399719238281	-473.0649108886719	881.8920288085938	122.0387649536133	-395.41455078125	865.54345703125	165.3207092285156	-382.3301391601562	1037.407958984375	201.6974945068359	-501.0936584472656	693.0404663085938	128.181396484375	-479.1546630859375	786.3580322265625	98.75843048095703	-412.0269165039062	782.0447387695312	145.1333770751953	-567.5801391601562	1643.419799804688	335.4624633789062	-755.1015625	1715.3349609375	251.2274932861328	-643.2161865234375	1700.105224609375	188.0992584228516	-681.1709594726562	1666.007568359375	408.6780395507812	-831.7920532226562	995.2393798828125	418.3307800292969	-525.137939453125	965.4113159179688	205.8802947998047	-607.1370239257812	1006.853576660156	159.0062255859375	-828.1729125976562	1030.8505859375	282.684814453125	-895.0357666015625	515.0305786132812	223.3825988769531	-898.8703002929688	652.1915283203125	284.4350891113281	-905.7509155273438	28.72415733337402	253.5321044921875	-914.0628051757812	280.6665954589844	232.7216339111328	-935.8381958007812	66.78156280517578	43.89989852905273	-878.9660034179688	59.37577819824219	75.60038757324219	-969.2897338867188	30.95781707763672	159.5259857177734	-826.5631103515625	36.06960296630859	286.3539123535156	-563.0276489257812	468.4743347167969	304.2312927246094	-556.5196533203125	728.5067749023438	200.9544067382812	-434.6931762695312	108.5655822753906	644.7234497070312	-561.4586791992188	352.1984558105469	367.825439453125	-594.6307983398438	45.3310432434082	528.41259765625	-598.2114868164062	64.11897277832031	587.0545043945312	-478.0050659179688	39.84162139892578	561.4610595703125	-459.6794738769531	160.0387573242188	708.4292602539062	
